<?xml version="1.0" encoding="UTF-8" standalone="no"?>
<svg
   xmlns:dc="http://purl.org/dc/elements/1.1/"
   xmlns:cc="http://creativecommons.org/ns#"
   xmlns:rdf="http://www.w3.org/1999/02/22-rdf-syntax-ns#"
   xmlns:svg="http://www.w3.org/2000/svg"
   xmlns="http://www.w3.org/2000/svg"
   viewBox="0 0 60 68.75"
   height="68.75"
   width="60"
   xml:space="preserve"
   version="1.1"
   id="svg2"><metadata
     id="metadata8"><rdf:RDF><cc:Work
         rdf:about=""><dc:format>image/svg+xml</dc:format><dc:type
           rdf:resource="http://purl.org/dc/dcmitype/StillImage" /></cc:Work></rdf:RDF></metadata><defs
     id="defs6"><clipPath
       id="clipPath16"
       clipPathUnits="userSpaceOnUse"><path
         id="path18"
         d="M 0,55 48,55 48,0 0,0 0,55 Z" /></clipPath></defs><g
     transform="matrix(1.25,0,0,-1.25,0,68.75)"
     id="g10"><g
       id="g12"><g
         clip-path="url(#clipPath16)"
         id="g14"><g
           transform="translate(24.3418,54.1577)"
           id="g20"><path
             id="path22"
             style="fill:#231f20;fill-opacity:1;fill-rule:nonzero;stroke:none"
             d="m 0,0 c 1.902,0 3.139,-0.131 3.181,-0.134 5.935,-0.41 13.724,-1.89 17.129,-6.614 1.093,-1.519 2.547,-3.987 2.547,-7.888 0,-5.01 -4.081,-15.943 -11.881,-27.141 l -0.388,-0.562 C 8.637,-45.168 3.449,-52.681 -0.317,-52.681 l -0.041,0 -0.002,0 c -3.911,0 -9.097,7.654 -11.05,10.536 l -0.243,0.359 c -7.867,11.567 -11.933,22.409 -11.886,27.14 0.046,4.424 1.93,7.039 2.547,7.898 3.405,4.724 11.195,6.204 17.159,6.616 C -3.82,-0.131 -2.584,0 -0.682,0 L -0.334,-0.001 0,0 Z m 0,0.842 c -0.111,0 -0.226,0 -0.341,-0.001 -0.115,0.001 -0.228,0.001 -0.341,0.001 -1.974,0 -3.233,-0.137 -3.233,-0.137 -5.984,-0.412 -14.107,-1.936 -17.717,-6.945 -1.052,-1.46 -2.666,-4.139 -2.709,-8.396 -0.053,-5.054 4.203,-16.124 12.034,-27.638 1.945,-2.861 7.445,-11.248 11.947,-11.248 l 0.039,0 0.016,0 c 4.427,0 9.952,8.408 11.93,11.248 7.787,11.181 12.034,22.316 12.034,27.638 0,4.257 -1.657,6.936 -2.709,8.396 -3.608,5.009 -11.732,6.533 -17.716,6.945 0,0 -1.261,0.137 -3.234,0.137" /></g><g
           transform="translate(24.0371,2.8223)"
           id="g24"><path
             id="path26"
             style="fill:#231f20;fill-opacity:1;fill-rule:nonzero;stroke:none"
             d="m 0,0 -0.056,0 c -0.689,0 -2.257,0.446 -5.007,3.432 -1.97,2.138 -3.762,4.746 -4.832,6.304 l -0.421,0.613 c -3.557,5.124 -6.568,10.523 -8.708,15.615 -1.859,4.424 -2.926,8.336 -2.926,10.735 0,3.495 1.304,5.714 2.286,7.077 2.429,3.37 8.178,5.529 16.189,6.081 l 0.084,0.008 c 0.126,0.012 1.278,0.125 3.014,0.125 l 0.363,-0.001 0.319,0.001 c 1.658,0 2.798,-0.104 3.008,-0.124 l 0.088,-0.009 c 8.012,-0.552 13.761,-2.711 16.19,-6.08 0.982,-1.363 2.287,-3.582 2.287,-7.078 0,-2.404 -1.064,-6.319 -2.919,-10.741 C 16.814,20.853 13.8,15.458 10.246,10.351 L 9.854,9.784 C 8.771,8.217 6.971,5.609 4.993,3.46 2.12,0.335 0.544,0 0,0 m -0.377,49.148 c -1.699,0 -2.815,-0.108 -2.936,-0.122 l -0.108,-0.008 c -7.775,-0.537 -13.316,-2.577 -15.601,-5.749 -0.913,-1.267 -2.126,-3.328 -2.126,-6.57 0,-2.286 1.041,-6.075 2.858,-10.393 2.119,-5.038 5.1,-10.384 8.623,-15.463 l 0.421,-0.61 c 1.06,-1.544 2.83,-4.12 4.76,-6.215 2.714,-2.949 4.077,-3.177 4.43,-3.177 l 0.056,0 c 0.245,0 1.61,0.156 4.414,3.203 1.94,2.108 3.72,4.685 4.782,6.225 l 0.401,0.579 c 3.521,5.056 6.505,10.399 8.626,15.45 1.812,4.317 2.853,8.109 2.853,10.401 0,3.243 -1.213,5.303 -2.128,6.57 -2.282,3.172 -7.825,5.212 -15.599,5.749 l -0.092,0.007 c -0.225,0.023 -1.328,0.123 -2.952,0.123 l -0.312,-0.002 -0.37,0.002 z" /></g><g
           transform="translate(24.001,10.3154)"
           id="g28"><path
             id="path30"
             style="fill:#231f20;fill-opacity:1;fill-rule:nonzero;stroke:none"
             d="M 0,0 C -1.898,0 -3.442,1.618 -3.442,3.609 -3.442,5.6 -1.898,7.218 0,7.218 1.898,7.218 3.442,5.6 3.442,3.609 3.442,1.618 1.898,0 0,0 m 0,6.377 c -1.455,0 -2.638,-1.241 -2.638,-2.768 0,-1.527 1.183,-2.766 2.638,-2.766 1.455,0 2.639,1.239 2.639,2.766 0,1.527 -1.184,2.768 -2.639,2.768" /></g><g
           transform="translate(24.001,39.6069)"
           id="g32"><path
             id="path34"
             style="fill:#231f20;fill-opacity:1;fill-rule:nonzero;stroke:none"
             d="M 0,0 C -1.898,0 -3.442,1.619 -3.442,3.609 -3.442,5.6 -1.898,7.218 0,7.218 1.898,7.218 3.442,5.6 3.442,3.609 3.442,1.619 1.898,0 0,0 m 0,6.376 c -1.455,0 -2.638,-1.241 -2.638,-2.767 0,-1.526 1.183,-2.768 2.638,-2.768 1.455,0 2.639,1.242 2.639,2.768 0,1.526 -1.184,2.767 -2.639,2.767" /></g><g
           transform="translate(23.999,30.2974)"
           id="g36"><path
             id="path38"
             style="fill:#231f20;fill-opacity:1;fill-rule:nonzero;stroke:none"
             d="M 0,0 -0.008,0 C -1.385,0.001 -2.827,0.484 -4.065,1.362 L -4.372,1.585 C -5.428,2.346 -6.662,2.75 -7.944,2.75 l -0.003,0 c -1.279,0 -2.508,-0.4 -3.556,-1.156 L -11.698,1.449 C -12.92,0.502 -14.378,0 -15.909,0 c -1.386,0 -2.73,0.419 -3.886,1.214 -0.091,0.061 -0.179,0.125 -0.265,0.19 l 0.468,0.683 c 0.079,-0.058 0.156,-0.114 0.237,-0.17 1.024,-0.703 2.217,-1.076 3.446,-1.076 1.359,0 2.65,0.447 3.739,1.289 l 0.206,0.154 c 1.189,0.857 2.576,1.307 4.017,1.307 l 0.003,0 c 1.445,0 2.837,-0.452 4.024,-1.31 L -3.615,2.06 c 1.107,-0.784 2.389,-1.216 3.608,-1.219 l 0.007,0 c 1.265,0 2.504,0.409 3.586,1.18 l 0.513,0.38 c 1.136,0.78 2.457,1.187 3.824,1.187 l 0.017,0 c 1.353,-0.005 2.664,-0.402 3.792,-1.151 0.085,-0.057 0.3,-0.22 0.406,-0.301 1.091,-0.846 2.383,-1.295 3.745,-1.295 1.344,0 2.627,0.439 3.709,1.268 L 20.066,1.428 C 18.845,0.494 17.398,0 15.883,0 14.35,0 12.891,0.503 11.66,1.458 11.568,1.528 11.379,1.676 11.303,1.725 10.304,2.389 9.139,2.742 7.938,2.746 l -0.015,0 C 6.71,2.746 5.545,2.387 4.55,1.705 L 4.042,1.33 C 2.823,0.458 1.428,0 0,0" /></g><g
           transform="translate(23.999,26.7275)"
           id="g40"><path
             id="path42"
             style="fill:#231f20;fill-opacity:1;fill-rule:nonzero;stroke:none"
             d="M 0,0 -0.008,0 C -1.384,0.003 -2.825,0.484 -4.065,1.361 L -4.376,1.59 c -2.103,1.514 -5.028,1.516 -7.127,0.004 L -11.699,1.448 C -12.92,0.503 -14.378,0 -15.909,0 c -0.756,0 -1.498,0.124 -2.206,0.366 l 0.248,0.802 c 0.63,-0.218 1.288,-0.327 1.958,-0.327 1.359,0 2.65,0.447 3.739,1.29 l 0.207,0.154 c 2.381,1.714 5.669,1.708 8.044,-0.004 L -3.615,2.06 c 1.108,-0.783 2.389,-1.216 3.608,-1.219 l 0.007,0 c 1.265,0 2.505,0.408 3.586,1.179 L 4.099,2.401 C 5.235,3.18 6.556,3.587 7.923,3.587 l 0.017,0 C 9.293,3.584 10.604,3.185 11.734,2.437 11.819,2.38 12.035,2.217 12.14,2.133 13.771,0.868 15.953,0.511 17.867,1.177 L 18.12,0.378 C 17.401,0.127 16.647,0 15.883,0 14.35,0 12.889,0.504 11.66,1.458 11.568,1.531 11.379,1.676 11.306,1.726 10.304,2.389 9.139,2.742 7.94,2.745 l -0.017,0 C 6.71,2.745 5.545,2.386 4.55,1.704 L 4.042,1.329 C 2.823,0.458 1.428,0 0,0" /></g><g
           transform="translate(24.0132,23.1563)"
           id="g44"><path
             id="path46"
             style="fill:#231f20;fill-opacity:1;fill-rule:nonzero;stroke:none"
             d="m 0,0 -0.008,0 c -1.376,0.002 -2.818,0.485 -4.056,1.364 l -0.308,0.222 c -2.109,1.522 -5.03,1.522 -7.13,0.009 L -11.697,1.451 C -12.921,0.503 -14.378,0 -15.908,0 l 0,0.844 c 1.357,0 2.649,0.445 3.74,1.289 l 0.205,0.152 c 2.381,1.716 5.671,1.709 8.044,-0.002 l 0.305,-0.222 c 1.107,-0.784 2.389,-1.215 3.607,-1.217 l 0.007,0 c 1.266,0 2.504,0.407 3.585,1.178 L 4.1,2.402 C 5.237,3.183 6.556,3.59 7.924,3.59 l 0.018,0 C 9.294,3.585 10.605,3.188 11.733,2.438 11.821,2.381 12.034,2.219 12.138,2.137 13.229,1.291 14.523,0.844 15.882,0.844 l 0,-0.844 c -1.531,0 -2.99,0.505 -4.22,1.46 -0.094,0.071 -0.282,0.218 -0.358,0.268 -1,0.663 -2.165,1.014 -3.364,1.019 l -0.016,0 C 6.711,2.747 5.546,2.388 4.548,1.706 L 4.043,1.331 C 2.824,0.459 1.427,0 0,0" /></g><path
           id="path48"
           style="fill:#231f20;fill-opacity:1;fill-rule:nonzero;stroke:none"
           d="m 9.073,20.961 29.854,0 0,0.843 -29.854,0 0,-0.843 z" /><path
           id="path50"
           style="fill:#231f20;fill-opacity:1;fill-rule:nonzero;stroke:none"
           d="m 3.067,35.242 41.866,0 0,0.842 -41.866,0 0,-0.842 z" /></g></g></g></svg>